<?xml version="1.0" ?><svg id="Travel" style="enable-background:new 0 0 48 48;" version="1.1" viewBox="0 0 48 48" xml:space="preserve" xmlns="http://www.w3.org/2000/svg" xmlns:xlink="http://www.w3.org/1999/xlink"><polygon points="31,1 16,5 1,1 1,43 16,47 31,43 47,47 47,5 " style="fill:#ECF0F2;"/><polygon points="47,42 41,42 34,39 32,32 42,32 41,28 40,18 40,17.03226 41.6129,12 43.83871,12 47,11 " style="fill:#57B9EA;"/><polygon points="31,1 16,5 16,47 31,43 " style="fill:#D9D9D9;"/><polygon points="5,11.55556 6.5,10 19.5,10 24.75,16.75 21,21 21,24 18,21.75 18,25.75 21,28 25,28   27,29.87097 27,32.83871 23,37.29032 23,41.01613 20,38.01613 20,31.70968 15.5,28 11,28 11,17 5,17 " style="fill:#58CFB4;"/><polygon points="35,7 35,13.22581 30.8,17.67742 28,13.96774 28,11 26,11 26,7 " style="fill:#42B79C;"/><path d="M43,28H33v0c0-2.20914,1.79086-4,4-4H39C41.20914,24,43,25.79086,43,28L43,28z" style="fill:#E55757;"/><path d="M37,24h2c0.73236,0,1.40961,0.21112,2,0.55475V18h-6v6.55475C35.59039,24.21112,36.26764,24,37,24z" style="fill:#E55757;"/><path d="M47.24268,4.02979l-16-4c-0.16406-0.04102-0.33594-0.04004-0.50049,0.00391L16,3.96484  L1.25781,0.03369C0.9585-0.04492,0.63721,0.01758,0.39062,0.20703C0.14453,0.39648,0,0.68945,0,1v42  c0,0.45312,0.30469,0.84961,0.74219,0.96631l15,4c0.16895,0.04492,0.34668,0.04492,0.51562,0l14.75049-3.93359l15.74902,3.9375  C46.8374,47.99023,46.91895,48,47,48c0.2207,0,0.43799-0.07324,0.61523-0.21191C47.85791,47.59863,48,47.30811,48,47V5  C48,4.54102,47.6875,4.14111,47.24268,4.02979z M38,37c0.55225,0,1-0.44775,1-1v-3h3c0.30811,0,0.59863-0.14209,0.78809-0.38477  s0.25684-0.55908,0.18213-0.85791L42.28088,29H43c0.55225,0,1-0.44775,1-1c0-1.62689-0.79303-3.06079-2-3.97443V18  c0-0.5321-0.41895-0.95752-0.9433-0.98853L42.34229,13h1.49658c0.10254,0,0.2041-0.01562,0.30176-0.04639L46,12.36542V41h-4.79492  l-6.37402-2.73193L33.32568,33H37v3C37,36.55225,37.44775,37,38,37z M40,19v4.10107C39.67676,23.03516,39.34241,23,39,23h-2  c-0.34241,0-0.67676,0.03516-1,0.10107V19H40z M35.45624,25.43854c0.01532-0.00787,0.03217-0.01093,0.04718-0.01959  c0.23511-0.1369,0.47681-0.23914,0.72308-0.30914c0.00964-0.00262,0.01941-0.00458,0.02911-0.00708  C36.49976,25.03607,36.74823,25,37,25h2c0.25177,0,0.50024,0.03607,0.74438,0.10272c0.0097,0.0025,0.01947,0.00446,0.02911,0.00708  c0.24628,0.07001,0.48798,0.17224,0.72308,0.30914c0.01501,0.00873,0.03186,0.01172,0.04718,0.01959  C41.133,25.7951,41.59521,26.34149,41.82861,27h-7.65723C34.40479,26.34143,34.867,25.7951,35.45624,25.43854z M40.21918,29  l0.50006,2H39v-2H40.21918z M31.24268,42.02979c-0.16406-0.0415-0.33594-0.03955-0.50049,0.00391L16,45.96484L2,42.23193V2.30176  l13.74219,3.66455c0.16895,0.04492,0.34668,0.04492,0.51562,0L31.0083,2.03271L46,5.78076v4.48657L43.68457,11h-2.07178  c-0.43457,0-0.81982,0.28076-0.95215,0.69482l-1.61279,5.03223c-0.02838,0.0882-0.03973,0.18048-0.04279,0.27295H35  c-0.55225,0-1,0.44775-1,1v6.02557C32.79303,24.93921,32,26.37311,32,28c0,0.55225,0.44775,1,1,1h4v2h-5  c-0.31396,0-0.60938,0.14746-0.79834,0.39795s-0.24951,0.5752-0.16309,0.87695l2,7c0.08252,0.28906,0.29102,0.52588,0.56738,0.64404  l7,3C40.73047,42.97266,40.86475,43,41,43h5v2.71924L31.24268,42.02979z" style="fill:#0A0B0F;"/><path d="M25.68311,27.26953C25.49805,27.09619,25.25391,27,25,27h-3.6665L19,25.25v-1.5l1.3999,1.0498  c0.30273,0.22705,0.70801,0.26416,1.04736,0.09473C21.78613,24.7251,22,24.37891,22,24v-2.62207l3.5-3.96631  c0.31787-0.36035,0.33447-0.896,0.03955-1.27539l-5.25-6.75C20.1001,9.14258,19.80859,9,19.5,9h-13  C6.22852,9,5.96875,9.11035,5.78027,9.30566l-1.5,1.55566C4.10059,11.04785,4,11.29688,4,11.55566V17c0,0.55225,0.44775,1,1,1h5v10  c0,0.55225,0.44775,1,1,1h4.14111L19,32.18115v5.83496c0,0.26514,0.10547,0.51953,0.29297,0.70703l3,3  c0.19141,0.19141,0.44678,0.29297,0.70703,0.29297c0.12891,0,0.25879-0.0249,0.38281-0.07617  C23.75635,41.78516,24,41.42041,24,41.01611v-3.34229l3.74365-4.1665C27.90869,33.32373,28,33.08545,28,32.83887v-2.96777  c0-0.27686-0.11475-0.54102-0.31689-0.73047L25.68311,27.26953z M26,32.45557l-3.74365,4.1665  C22.09131,36.80566,22,37.04395,22,37.29053v1.31152l-1-1v-5.89258c0-0.29883-0.1333-0.58154-0.36377-0.77148l-4.5-3.70947  C15.95703,27.08057,15.73193,27,15.5,27H12V17c0-0.55225-0.44775-1-1-1H6v-4.04053L6.9248,11h12.08594l4.44092,5.70996  L20.25,20.33838C20.08887,20.521,20,20.75635,20,21v1l-1.3999-1.0498c-0.30371-0.22754-0.7085-0.26416-1.04736-0.09473  S17,21.37109,17,21.75v4c0,0.31494,0.14795,0.61133,0.3999,0.7998l3,2.25C20.57324,28.92969,20.78369,29,21,29h3.60498L26,30.30518  V32.45557z" style="fill:#0A0B0F;"/><path d="M35.72754,13.91162C35.90234,13.72607,36,13.48096,36,13.22559V7c0-0.55225-0.44775-1-1-1h-9  c-0.55225,0-1,0.44775-1,1v4c0,0.55225,0.44775,1,1,1h1v1.96777c0,0.21729,0.0708,0.42871,0.20166,0.60254l2.7998,3.70947  c0.17773,0.23486,0.44971,0.37988,0.74365,0.396c0.01807,0.00098,0.03662,0.00146,0.05469,0.00146  c0.27441,0,0.53809-0.11279,0.72754-0.31396L35.72754,13.91162z M29,13.63281V11c0-0.55225-0.44775-1-1-1h-1V8h7v4.82812  l-3.11523,3.30176L29,13.63281z" style="fill:#0A0B0F;"/><path d="M27,21h-1c-0.55225,0-1,0.44775-1,1s0.44775,1,1,1h1c0.55225,0,1-0.44775,1-1S27.55225,21,27,21z" style="fill:#0A0B0F;"/><path d="M6,37H5c-0.55225,0-1,0.44775-1,1s0.44775,1,1,1h1c0.55225,0,1-0.44775,1-1S6.55225,37,6,37z" style="fill:#0A0B0F;"/><path d="M9,34H8c-0.55225,0-1,0.44775-1,1s0.44775,1,1,1h1c0.55225,0,1-0.44775,1-1S9.55225,34,9,34z" style="fill:#0A0B0F;"/><path d="M12,39h-1c-0.55225,0-1,0.44775-1,1s0.44775,1,1,1h1c0.55225,0,1-0.44775,1-1S12.55225,39,12,39z" style="fill:#0A0B0F;"/></svg>